<svg xmlns="http://www.w3.org/2000/svg" version="1.1" xmlns:xlink="http://www.w3.org/1999/xlink" xmlns:svgjs="http://svgjs.dev/svgjs" width="100%" height="100%" viewBox="0 0 1000 600"><rect width="1000" height="600" x="0" y="0" fill="#2f3c7e"/><g><circle r="166.66666666666666" cx="1020.108927408854" cy="453.1983120030859" fill="#fbeaeb" transform="matrix(0.47293050184669205,0,0,0.47293050184669205,-146.851521946048,85.66868823511287)"/><path d="M645.9960450893935 528.1982897670348L645.9960450893935 528.1982897670348Q621.2072652239818 528.1982897670348 605.4924968021462 517.4514158785537Q589.7777283803106 506.7045419900725 582.3258865802788 490.07730314374317Q574.8233519788863 473.45006429741386 574.8233519788863 456.3158974374769L574.8233519788863 456.3158974374769Q574.8233519788863 438.06648894760326 581.9710369707535 423.82181176522965Q589.0680291612599 409.5771345828561 600.7273734742348 399.7427311188686Q612.4374105885704 389.90832765488113 626.6820877709439 384.7883547174444Q640.8760721519568 379.66838178000756 654.4110501152797 379.66838178000756L654.4110501152797 379.66838178000756Q665.0058455996787 379.66838178000756 674.6374778582231 382.40579305348865Q684.3198029181282 385.14320432696974 690.707095889584 390.26317726440647Q697.0943888610398 395.38315020184325 697.0943888610398 401.9225215773813L697.0943888610398 401.9225215773813Q697.0943888610398 406.68764490529276 693.7993567725904 410.13475539782445Q690.5550174855017 413.6325586917169 684.3198029181282 413.6325586917169L684.3198029181282 413.6325586917169Q678.4901307616408 413.6325586917169 674.6374778582231 409.98267699374213Q670.835517756166 406.3327952957674 668.2501848867672 401.567671967856L668.2501848867672 401.567671967856Q664.2454535792673 394.97760779095717 658.7706310323051 390.9728764834571Q653.2958084853431 386.9681451759571 642.3461633914188 386.9681451759571L642.3461633914188 386.9681451759571Q621.5621148335072 386.9681451759571 610.2576201300577 403.1898416114003Q598.9024326252473 419.4622308482043 598.9024326252473 445.36625234355273L598.9024326252473 445.36625234355273Q598.9024326252473 463.9705104429517 605.2897255967032 480.04012847431267Q611.6770185681589 496.1097465056736 625.211996531482 505.7920715655788Q638.6962816934441 515.4237038241233 660.2407222717671 515.4237038241233L660.2407222717671 515.4237038241233Q670.0751257357546 515.4237038241233 679.6053723915776 512.8890637560853Q689.0849262460397 510.35442368804723 697.4492384705651 503.4095099016231L697.4492384705651 503.4095099016231Q698.2096304909766 502.6491178812117 699.4769505249955 504.1192091206737Q700.7442705590146 505.5893003601358 700.0345713399639 506.2989995791864L700.0345713399639 506.2989995791864Q687.2599853970523 517.6541870839967 674.4853994541407 522.9262384255157Q661.7108135112293 528.1982897670348 645.9960450893935 528.1982897670348ZM862.099457290314 508.12394042817374L824.48539868063 526.0184993085221Q823.0153074411679 526.7788913289335 821.5452162017059 526.7788913289335L821.5452162017059 526.7788913289335Q816.8307856751552 526.7788913289335 812.4205119567691 518.9215071180156Q808.0609310397437 511.0641229070979 808.0609310397437 496.1097465056736L808.0609310397437 496.1097465056736L808.0609310397437 430.7667255516538Q808.0609310397437 413.6325586917169 804.9686701567374 404.102312035894Q801.8764092737309 394.62275818143183 796.5536651308512 390.9728764834571Q791.281613789332 387.3229947854824 784.6915496124333 387.3229947854824L784.6915496124333 387.3229947854824Q775.5668453674965 387.3229947854824 769.737173211009 391.8853469079508Q763.9075010545216 396.4476990304192 760.9673185755976 403.3926128168433Q758.0778288980342 410.33752660326746 756.9625872680975 417.2824403896916L756.9625872680975 417.2824403896916Q756.6077376585722 422.35172052576763 753.8703263850911 426.76199424415375Q751.13291511161 431.1215751611791 743.4783021061353 431.1215751611791L743.4783021061353 431.1215751611791Q737.5979371482871 431.1215751611791 734.3535978611985 428.23208548361583Q731.058565772749 425.29190300469173 731.058565772749 420.17193006725495L731.058565772749 420.17193006725495Q731.058565772749 413.6325586917169 737.5979371482871 406.48487369984974Q744.188001325186 399.3878815093433 754.2251759946164 393.3554381474128Q764.262350664047 387.3229947854824 775.4147669634141 383.5210346834254Q786.5164904614206 379.66838178000756 796.4015867267689 379.66838178000756L796.4015867267689 379.66838178000756Q810.2407214982564 379.66838178000756 819.3654257431932 389.3507068399128Q828.4901299881301 399.03303189981796 828.4901299881301 419.8170804577296L828.4901299881301 419.8170804577296L828.4901299881301 484.39970939133804Q828.4901299881301 497.1742953342496 831.7851620765795 503.05466029209776Q835.0801941650288 508.8843324485852 842.3799575609784 508.8843324485852L842.3799575609784 508.8843324485852Q848.9193289365163 508.8843324485852 860.6293660508519 504.1192091206737L860.6293660508519 504.1192091206737Q862.4543068998393 503.4095099016231 863.1640061188899 505.3865291546927Q863.9243981393014 507.41424120912313 862.099457290314 508.12394042817374L862.099457290314 508.12394042817374ZM752.9578559605974 526.3733489180474L752.9578559605974 526.3733489180474Q741.2478188462618 526.3733489180474 735.4181466897745 519.9860559465917Q729.588474533287 513.598762975136 729.588474533287 505.23445075061045L729.588474533287 505.23445075061045Q729.588474533287 494.99450487573694 737.5979371482871 488.9620615138064Q745.658092564648 482.9803109532367 763.9075010545216 476.7450963858633L763.9075010545216 476.7450963858633L811.7108127377185 459.61092952592634L812.8260543676552 463.6156608334264L770.4468724300597 479.68527886478734Q762.0825602055343 482.9803109532367 758.5847569116419 486.9850422607368Q755.1376464191101 490.98977356823684 755.1376464191101 497.1742953342496L755.1376464191101 497.1742953342496Q755.1376464191101 504.8796011410851 759.4972273361356 509.0364108526674Q763.9075010545216 513.2439133656105 770.8524148409457 513.2439133656105L770.8524148409457 513.2439133656105Q774.8571461484458 513.2439133656105 778.5070278464206 512.3314429411168Q782.1569095443953 511.4189725166232 785.80679124237 509.5940316676358L785.80679124237 509.5940316676358L816.8307856751552 493.92995604716094L817.5404848942059 498.2895369641863L785.80679124237 515.4237038241233Q774.8571461484458 520.8985263710854 767.5573827524964 523.6359376445664Q760.2576193565469 526.3733489180474 752.9578559605974 526.3733489180474ZM977.4255803860433 523.8387088500094L977.4255803860433 523.8387088500094Q976.3103387561066 523.8387088500094 976.3103387561066 521.6589183914967Q976.3103387561066 519.479127932984 977.4255803860433 519.479127932984L977.4255803860433 519.479127932984Q991.6702575684168 519.479127932984 995.8270672799993 514.5112333996296Q1000.0345697929423 509.5940316676358 1000.0345697929423 494.2848056566863L1000.0345697929423 494.2848056566863L1000.0345697929423 435.12630646867916Q1000.0345697929423 413.2270162808308 992.0251071779422 403.1898416114003Q983.9649517615813 393.1526669419698 966.4759352921191 393.1526669419698L966.4759352921191 393.1526669419698Q953.3464997396823 393.1526669419698 939.456672166834 401.567671967856Q925.5668445939857 409.98267699374213 915.7324411299982 424.58220378564107L915.7324411299982 424.58220378564107L914.2623498905361 420.17193006725495Q930.3319679218971 398.6274894889319 946.198814747815 388.4382364154191Q962.065661573733 378.19829054054554 978.4901292146193 378.19829054054554L978.4901292146193 378.19829054054554Q998.5644785534804 378.19829054054554 1009.7168948528474 389.3507068399128Q1020.8693111522147 400.4524303379192 1020.8693111522147 422.7572629366537L1020.8693111522147 422.7572629366537L1020.8693111522147 494.2848056566863Q1020.8693111522147 509.5940316676358 1025.0261208637971 514.5112333996296Q1029.23362337674 519.479127932984 1043.478300559114 519.479127932984L1043.478300559114 519.479127932984Q1044.5935421890504 519.479127932984 1044.5935421890504 521.6589183914967Q1044.5935421890504 523.8387088500094 1043.478300559114 523.8387088500094L1043.478300559114 523.8387088500094Q1037.293778793101 523.8387088500094 1028.6760025617718 523.4838592404841Q1020.1089191318034 523.1290096309588 1010.6293652773412 523.1290096309588L1010.6293652773412 523.1290096309588Q1001.149811422879 523.1290096309588 992.3799567874674 523.4838592404841Q983.6101021520561 523.8387088500094 977.4255803860433 523.8387088500094ZM879.2336241502509 523.8387088500094L879.2336241502509 523.8387088500094Q878.1183825203142 523.8387088500094 878.1183825203142 521.6589183914967Q878.1183825203142 519.479127932984 879.2336241502509 519.479127932984L879.2336241502509 519.479127932984Q893.4783013326245 519.479127932984 897.6858038455676 514.5112333996296Q901.8426135571499 509.5940316676358 901.8426135571499 494.2848056566863L901.8426135571499 494.2848056566863L901.8426135571499 421.9968709162423Q901.8426135571499 409.98267699374213 899.105202283669 404.30508324133706Q896.3677910101878 398.6274894889319 889.0680276142383 398.6274894889319L889.0680276142383 398.6274894889319Q885.4181459162636 398.6274894889319 880.5009441842699 400.09758072839395Q875.5837424522762 401.567671967856 869.3992206862634 404.102312035894L869.3992206862634 404.102312035894Q867.9291294468013 404.5078544467801 867.0166590223076 402.6829135977927Q866.104188597814 400.85797274880537 867.5742798372761 400.09758072839395L867.5742798372761 400.09758072839395L909.9027689735108 380.0232313895329Q910.9673178020868 379.66838178000756 912.0825594320235 379.66838178000756L912.0825594320235 379.66838178000756Q914.6171995000615 379.66838178000756 918.6726236089223 387.3229947854824Q922.6773549164224 394.97760779095717 922.6773549164224 409.5771345828561L922.6773549164224 409.5771345828561L922.6773549164224 494.2848056566863Q922.6773549164224 509.5940316676358 926.8848574293655 514.5112333996296Q931.0416671409478 519.479127932984 945.2863443233214 519.479127932984L945.2863443233214 519.479127932984Q946.4015859532582 519.479127932984 946.4015859532582 521.6589183914967Q946.4015859532582 523.8387088500094 945.2863443233214 523.8387088500094L945.2863443233214 523.8387088500094Q939.1018225573087 523.8387088500094 930.5347391273402 523.4838592404841Q921.9169628960109 523.1290096309588 912.4374090415488 523.1290096309588L912.4374090415488 523.1290096309588Q902.9578551870867 523.1290096309588 894.1880005516751 523.4838592404841Q885.4181459162636 523.8387088500094 879.2336241502509 523.8387088500094ZM1208.8382185979135 382.96341386845705L1208.8382185979135 382.96341386845705Q1209.547917816964 382.96341386845705 1209.547917816964 385.14320432696974Q1209.547917816964 387.3229947854824 1208.8382185979135 387.3229947854824L1208.8382185979135 387.3229947854824Q1199.7135143529767 387.3229947854824 1193.3262213815206 393.0005885378875Q1186.9389284100648 398.6274894889319 1180.7037138426913 413.9874083012422L1180.7037138426913 413.9874083012422L1135.0801926180075 523.4838592404841Q1134.725343008482 524.9539504799461 1131.2782325159505 524.9539504799461Q1127.780429222058 524.9539504799461 1127.0707300030072 523.4838592404841L1127.0707300030072 523.4838592404841L1075.9723862313613 413.2270162808308Q1068.3177732258864 396.8025486399445 1063.3498786925315 392.0881181133938Q1058.4326769605382 387.3229947854824 1051.4877631741138 387.3229947854824L1051.4877631741138 387.3229947854824Q1050.4232143455379 387.3229947854824 1050.4232143455379 385.14320432696974Q1050.4232143455379 382.96341386845705 1051.4877631741138 382.96341386845705L1051.4877631741138 382.96341386845705Q1056.9625857210758 382.96341386845705 1063.3498786925315 383.3182634779823Q1069.7371716639873 383.67311308750766 1076.6820854504117 383.67311308750766L1076.6820854504117 383.67311308750766Q1089.1018217837977 383.67311308750766 1098.226526028735 383.3182634779823Q1107.3512302736717 382.96341386845705 1115.0058432791466 382.96341386845705L1115.0058432791466 382.96341386845705Q1116.121084909083 382.96341386845705 1116.121084909083 385.14320432696974Q1116.121084909083 387.3229947854824 1115.0058432791466 387.3229947854824L1115.0058432791466 387.3229947854824Q1103.701348575697 387.3229947854824 1097.111284398798 390.06040605896345Q1090.57191302326 392.7978173324445 1094.5766443307602 401.567671967856L1094.5766443307602 401.567671967856L1141.315407185381 500.8241770322243L1130.7206117009819 515.8292462350094L1173.4039504467419 412.1624674522548Q1178.878772993704 399.03303189981796 1172.4914800222482 393.1526669419698Q1166.1041870507925 387.3229947854824 1147.145079341868 387.3229947854824L1147.145079341868 387.3229947854824Q1146.384687321457 387.3229947854824 1146.384687321457 385.14320432696974Q1146.384687321457 382.96341386845705 1147.145079341868 382.96341386845705L1147.145079341868 382.96341386845705Q1155.9149339772798 382.96341386845705 1163.7216253868369 383.3182634779823Q1171.5790095977545 383.67311308750766 1183.998745931141 383.67311308750766L1183.998745931141 383.67311308750766Q1191.6533589366154 383.67311308750766 1196.5705606686092 383.3182634779823Q1201.538455201964 382.96341386845705 1208.8382185979135 382.96341386845705ZM1357.722976194466 508.12394042817374L1320.1596103861425 526.0184993085221Q1318.6895191466806 526.7788913289335 1317.2194279072187 526.7788913289335L1317.2194279072187 526.7788913289335Q1312.454304579307 526.7788913289335 1308.094723662282 518.9215071180156Q1303.7351427452563 511.0641229070979 1303.7351427452563 496.1097465056736L1303.7351427452563 496.1097465056736L1303.7351427452563 430.7667255516538Q1303.7351427452563 413.6325586917169 1300.5921890608893 404.102312035894Q1297.4999281778828 394.62275818143183 1292.227876836364 390.9728764834571Q1286.9051326934841 387.3229947854824 1280.3657613179462 387.3229947854824L1280.3657613179462 387.3229947854824Q1271.241057073009 387.3229947854824 1265.4113849165215 391.8853469079508Q1259.5310199586734 396.4476990304192 1256.6415302811101 403.3926128168433Q1253.7013478021859 410.33752660326746 1252.63679897361 417.2824403896916L1252.63679897361 417.2824403896916Q1252.231256562724 422.35172052576763 1249.493845289243 426.76199424415375Q1246.756434015762 431.1215751611791 1239.101821010287 431.1215751611791L1239.101821010287 431.1215751611791Q1233.2721488537995 431.1215751611791 1229.9771167653503 428.23208548361583Q1226.682084676901 425.29190300469173 1226.682084676901 420.17193006725495L1226.682084676901 420.17193006725495Q1226.682084676901 413.6325586917169 1233.2721488537995 406.48487369984974Q1239.8622130306985 399.3878815093433 1249.899387700129 393.3554381474128Q1259.9365623695594 387.3229947854824 1271.0382858675662 383.5210346834254Q1282.190702166933 379.66838178000756 1292.0251056309207 379.66838178000756L1292.0251056309207 379.66838178000756Q1305.9149332037691 379.66838178000756 1315.039637448706 389.3507068399128Q1324.1643416936427 399.03303189981796 1324.1643416936427 419.8170804577296L1324.1643416936427 419.8170804577296L1324.1643416936427 484.39970939133804Q1324.1643416936427 497.1742953342496 1327.459373782092 503.05466029209776Q1330.7037130691806 508.8843324485852 1338.00347646513 508.8843324485852L1338.00347646513 508.8843324485852Q1344.593540642029 508.8843324485852 1356.252884955004 504.1192091206737L1356.252884955004 504.1192091206737Q1358.0778258039913 503.4095099016231 1358.8382178244028 505.3865291546927Q1359.5479170434533 507.41424120912313 1357.722976194466 508.12394042817374L1357.722976194466 508.12394042817374ZM1248.5813748647493 526.3733489180474L1248.5813748647493 526.3733489180474Q1236.9220305517742 526.3733489180474 1231.0923583952872 519.9860559465917Q1225.2626862387997 513.598762975136 1225.2626862387997 505.23445075061045L1225.2626862387997 505.23445075061045Q1225.2626862387997 494.99450487573694 1233.2721488537995 488.9620615138064Q1241.2816114687998 482.9803109532367 1259.5310199586734 476.7450963858633L1259.5310199586734 476.7450963858633L1307.385024443231 459.61092952592634L1308.449573271807 463.6156608334264L1266.1210841355723 479.68527886478734Q1257.706079109686 482.9803109532367 1254.2589686171546 486.9850422607368Q1250.8118581246226 490.98977356823684 1250.8118581246226 497.1742953342496L1250.8118581246226 497.1742953342496Q1250.8118581246226 504.8796011410851 1255.1714390416482 509.0364108526674Q1259.5310199586734 513.2439133656105 1266.4759337450978 513.2439133656105L1266.4759337450978 513.2439133656105Q1270.4806650525975 513.2439133656105 1274.1305467505722 512.3314429411168Q1277.780428448547 511.4189725166232 1281.4303101465216 509.5940316676358L1281.4303101465216 509.5940316676358L1312.454304579307 493.92995604716094L1313.2146965997185 498.2895369641863L1281.4303101465216 515.4237038241233Q1270.4806650525975 520.8985263710854 1263.180901656648 523.6359376445664Q1255.8811382606987 526.3733489180474 1248.5813748647493 526.3733489180474ZM1394.9821851946244 405.21755366583074L1394.9821851946244 405.21755366583074Q1394.9821851946244 414.69710752029283 1399.8993869266183 421.2871716971917Q1404.816588658612 427.82654307272975 1412.3191232600047 432.38889519519813Q1419.7709650600364 436.95124731766657 1428.1859700859227 441.3615210360527L1428.1859700859227 441.3615210360527Q1437.6655239403844 446.0759515626034 1446.0805289662708 451.3986957054832Q1454.444841190796 456.67074704700224 1459.9196637377581 464.1732816483947Q1465.3944862847202 471.62512344842645 1465.3944862847202 483.6900101722874L1465.3944862847202 483.6900101722874Q1465.3944862847202 495.3493544852622 1459.5648141282331 505.3865291546927Q1453.7351419717456 515.4237038241233 1442.2278760628528 521.6589183914967Q1430.7206101539605 527.8434401575095 1413.9412929035489 527.8434401575095L1413.9412929035489 527.8434401575095Q1404.816588658612 527.8434401575095 1396.4015836327258 525.4608784935538Q1388.0372714082005 523.1290096309588 1378.9125671632637 516.8937950635852L1378.9125671632637 516.8937950635852Q1378.1521751428522 516.1840958445346 1377.4424759238013 515.0688542145979Q1376.732776704751 514.004305386022 1376.732776704751 512.5342141465599L1376.732776704751 512.5342141465599L1375.9723846843394 484.0448597818127Q1375.9723846843394 482.9803109532367 1378.00009673877 482.7775397477937Q1379.9771159918396 482.5747685423507 1380.3826584027256 483.6900101722874L1380.3826584027256 483.6900101722874Q1384.7422393197512 496.1097465056736 1391.3323034966497 504.3219803261168Q1397.8716748721877 512.5342141465599 1406.286679898074 516.741716659503Q1414.6509921225993 520.8985263710854 1424.181238778422 520.8985263710854L1424.181238778422 520.8985263710854Q1435.840583091397 520.8985263710854 1442.2278760628528 515.0688542145979Q1448.6151690343086 509.23918205811054 1448.2603194247831 497.934687354661L1448.2603194247831 497.934687354661Q1447.9054698152581 487.33989187026214 1442.785496877821 480.74982769336333Q1437.6655239403844 474.2104563178253 1430.1629893389922 469.64810419535684Q1422.7111475389602 465.0857520728884 1414.6509921225993 461.08102076538836L1414.6509921225993 461.08102076538836Q1405.5262878776625 456.67074704700224 1397.3140540572194 451.7535453150085Q1389.1018202367763 446.83634358301475 1383.8297688952575 439.18173057754Q1378.5577175537383 431.47642477070445 1378.5577175537383 419.107381238679L1378.5577175537383 419.107381238679Q1378.5577175537383 404.8627040563054 1385.8574809496877 395.89007821545084Q1393.157244345637 386.9681451759571 1404.4617390490866 382.760642663014Q1415.7662337525362 378.5531401500709 1428.1859700859227 378.5531401500709L1428.1859700859227 378.5531401500709Q1435.1308838723467 378.5531401500709 1441.6702552478846 379.66838178000756Q1448.2603194247831 380.78362340994437 1454.7996908003215 384.027962697033L1454.7996908003215 384.027962697033Q1458.0947228887712 385.14320432696974 1458.0947228887712 388.0833868058938L1458.0947228887712 388.0833868058938Q1458.0947228887712 393.91305896238117 1457.7398732792453 400.30035193383696Q1457.3850236697203 406.68764490529276 1457.3850236697203 414.69710752029283L1457.3850236697203 414.69710752029283Q1457.3850236697203 415.45749954070425 1455.2052332112075 415.45749954070425Q1452.9747499513342 415.45749954070425 1452.9747499513342 414.69710752029283L1452.9747499513342 414.69710752029283Q1452.9747499513342 406.3327952957674 1447.1450777948467 399.7427311188686Q1441.3154056383592 393.1526669419698 1432.5455510029478 389.3507068399128Q1423.7756963675365 385.498053936495 1415.0565345334853 385.498053936495L1415.0565345334853 385.498053936495Q1406.286679898074 385.498053936495 1400.6090861456692 390.26317726440647Q1394.9821851946244 394.97760779095717 1394.9821851946244 405.21755366583074Z " fill="#2f3c7e" transform="matrix(0.47293050184669205,0,0,0.47293050184669205,-146.851521946048,85.66868823511287)"/><path d="M1341.2815980679088 528.1982897670348L1341.2815980679088 528.1982897670348Q1316.4928182024971 528.1982897670348 1300.7780497806614 517.4514158785537Q1285.0632813588259 506.7045419900725 1277.611439558794 490.07730314374317Q1270.1089049574016 473.45006429741386 1270.1089049574016 456.3158974374769L1270.1089049574016 456.3158974374769Q1270.1089049574016 438.06648894760326 1277.2565899492688 423.82181176522965Q1284.3535821397752 409.5771345828561 1296.01292645275 399.7427311188686Q1307.7229635670856 389.90832765488113 1321.9676407494592 384.7883547174444Q1336.161625130472 379.66838178000756 1349.696603093795 379.66838178000756L1349.696603093795 379.66838178000756Q1360.291398578194 379.66838178000756 1369.9230308367385 382.40579305348865Q1379.6053558966435 385.14320432696974 1385.9926488680992 390.26317726440647Q1392.379941839555 395.38315020184325 1392.379941839555 401.9225215773813L1392.379941839555 401.9225215773813Q1392.379941839555 406.68764490529276 1389.0849097511057 410.13475539782445Q1385.840570464017 413.6325586917169 1379.6053558966435 413.6325586917169L1379.6053558966435 413.6325586917169Q1373.775683740156 413.6325586917169 1369.9230308367385 409.98267699374213Q1366.1210707346813 406.3327952957674 1363.5357378652825 401.567671967856L1363.5357378652825 401.567671967856Q1359.5310065577826 394.97760779095717 1354.0561840108205 390.9728764834571Q1348.5813614638585 386.9681451759571 1337.631716369934 386.9681451759571L1337.631716369934 386.9681451759571Q1316.8476678120226 386.9681451759571 1305.543173108573 403.1898416114003Q1294.1879856037626 419.4622308482043 1294.1879856037626 445.36625234355273L1294.1879856037626 445.36625234355273Q1294.1879856037626 463.9705104429517 1300.5752785752186 480.04012847431267Q1306.9625715466743 496.1097465056736 1320.4975495099973 505.7920715655788Q1333.9818346719594 515.4237038241233 1355.5262752502824 515.4237038241233L1355.5262752502824 515.4237038241233Q1365.3606787142699 515.4237038241233 1374.8909253700929 512.8890637560853Q1384.370479224555 510.35442368804723 1392.7347914490804 503.4095099016231L1392.7347914490804 503.4095099016231Q1393.4951834694918 502.6491178812117 1394.7625035035107 504.1192091206737Q1396.0298235375299 505.5893003601358 1395.3201243184792 506.2989995791864L1395.3201243184792 506.2989995791864Q1382.5455383755677 517.6541870839967 1369.770952432656 522.9262384255157Q1356.9963664897446 528.1982897670348 1341.2815980679088 528.1982897670348ZM1557.3850102688293 508.12394042817374L1519.7709516591453 526.0184993085221Q1518.3008604196832 526.7788913289335 1516.8307691802213 526.7788913289335L1516.8307691802213 526.7788913289335Q1512.1163386536705 526.7788913289335 1507.7060649352845 518.9215071180156Q1503.346484018259 511.0641229070979 1503.346484018259 496.1097465056736L1503.346484018259 496.1097465056736L1503.346484018259 430.7667255516538Q1503.346484018259 413.6325586917169 1500.2542231352527 404.102312035894Q1497.1619622522462 394.62275818143183 1491.8392181093666 390.9728764834571Q1486.5671667678473 387.3229947854824 1479.9771025909486 387.3229947854824L1479.9771025909486 387.3229947854824Q1470.8523983460118 387.3229947854824 1465.0227261895243 391.8853469079508Q1459.193054033037 396.4476990304192 1456.2528715541127 403.3926128168433Q1453.3633818765495 410.33752660326746 1452.2481402466128 417.2824403896916L1452.2481402466128 417.2824403896916Q1451.8932906370876 422.35172052576763 1449.1558793636063 426.76199424415375Q1446.4184680901253 431.1215751611791 1438.7638550846507 431.1215751611791L1438.7638550846507 431.1215751611791Q1432.8834901268024 431.1215751611791 1429.639150839714 428.23208548361583Q1426.3441187512642 425.29190300469173 1426.3441187512642 420.17193006725495L1426.3441187512642 420.17193006725495Q1426.3441187512642 413.6325586917169 1432.8834901268024 406.48487369984974Q1439.4735543037011 399.3878815093433 1449.5107289731316 393.3554381474128Q1459.5479036425622 387.3229947854824 1470.7003199419294 383.5210346834254Q1481.802043439936 379.66838178000756 1491.6871397052842 379.66838178000756L1491.6871397052842 379.66838178000756Q1505.5262744767717 379.66838178000756 1514.6509787217085 389.3507068399128Q1523.7756829666453 399.03303189981796 1523.7756829666453 419.8170804577296L1523.7756829666453 419.8170804577296L1523.7756829666453 484.39970939133804Q1523.7756829666453 497.1742953342496 1527.0707150550948 503.05466029209776Q1530.3657471435442 508.8843324485852 1537.6655105394937 508.8843324485852L1537.6655105394937 508.8843324485852Q1544.2048819150316 508.8843324485852 1555.9149190293672 504.1192091206737L1555.9149190293672 504.1192091206737Q1557.7398598783545 503.4095099016231 1558.4495590974052 505.3865291546927Q1559.2099511178167 507.41424120912313 1557.3850102688293 508.12394042817374L1557.3850102688293 508.12394042817374ZM1448.2434089391127 526.3733489180474L1448.2434089391127 526.3733489180474Q1436.533371824777 526.3733489180474 1430.7036996682898 519.9860559465917Q1424.8740275118023 513.598762975136 1424.8740275118023 505.23445075061045L1424.8740275118023 505.23445075061045Q1424.8740275118023 494.99450487573694 1432.8834901268024 488.9620615138064Q1440.9436455431633 482.9803109532367 1459.193054033037 476.7450963858633L1459.193054033037 476.7450963858633L1506.9963657162336 459.61092952592634L1508.1116073461706 463.6156608334264L1465.732425408575 479.68527886478734Q1457.3681131840497 482.9803109532367 1453.8703098901572 486.9850422607368Q1450.4231993976252 490.98977356823684 1450.4231993976252 497.1742953342496L1450.4231993976252 497.1742953342496Q1450.4231993976252 504.8796011410851 1454.7827803146508 509.0364108526674Q1459.193054033037 513.2439133656105 1466.137967819461 513.2439133656105L1466.137967819461 513.2439133656105Q1470.1426991269611 513.2439133656105 1473.7925808249358 512.3314429411168Q1477.4424625229105 511.4189725166232 1481.0923442208853 509.5940316676358L1481.0923442208853 509.5940316676358L1512.1163386536705 493.92995604716094L1512.8260378727211 498.2895369641863L1481.0923442208853 515.4237038241233Q1470.1426991269611 520.8985263710854 1462.8429357310117 523.6359376445664Q1455.5431723350623 526.3733489180474 1448.2434089391127 526.3733489180474ZM1672.7111333645587 523.8387088500094L1672.7111333645587 523.8387088500094Q1671.5958917346218 523.8387088500094 1671.5958917346218 521.6589183914967Q1671.5958917346218 519.479127932984 1672.7111333645587 519.479127932984L1672.7111333645587 519.479127932984Q1686.955810546932 519.479127932984 1691.1126202585144 514.5112333996296Q1695.3201227714576 509.5940316676358 1695.3201227714576 494.2848056566863L1695.3201227714576 494.2848056566863L1695.3201227714576 435.12630646867916Q1695.3201227714576 413.2270162808308 1687.3106601564575 403.1898416114003Q1679.2505047400966 393.1526669419698 1661.7614882706343 393.1526669419698L1661.7614882706343 393.1526669419698Q1648.6320527181977 393.1526669419698 1634.7422251453493 401.567671967856Q1620.8523975725009 409.98267699374213 1611.0179941085134 424.58220378564107L1611.0179941085134 424.58220378564107L1609.5479028690513 420.17193006725495Q1625.6175209004125 398.6274894889319 1641.4843677263304 388.4382364154191Q1657.3512145522484 378.19829054054554 1673.7756821931346 378.19829054054554L1673.7756821931346 378.19829054054554Q1693.8500315319957 378.19829054054554 1705.0024478313628 389.3507068399128Q1716.15486413073 400.4524303379192 1716.15486413073 422.7572629366537L1716.15486413073 422.7572629366537L1716.15486413073 494.2848056566863Q1716.15486413073 509.5940316676358 1720.3116738423125 514.5112333996296Q1724.5191763552555 519.479127932984 1738.763853537629 519.479127932984L1738.763853537629 519.479127932984Q1739.8790951675658 519.479127932984 1739.8790951675658 521.6589183914967Q1739.8790951675658 523.8387088500094 1738.763853537629 523.8387088500094L1738.763853537629 523.8387088500094Q1732.5793317716164 523.8387088500094 1723.961555540287 523.4838592404841Q1715.3944721103187 523.1290096309588 1705.9149182558565 523.1290096309588L1705.9149182558565 523.1290096309588Q1696.4353644013943 523.1290096309588 1687.6655097659827 523.4838592404841Q1678.8956551305714 523.8387088500094 1672.7111333645587 523.8387088500094ZM1574.5191771287662 523.8387088500094L1574.5191771287662 523.8387088500094Q1573.4039354988295 523.8387088500094 1573.4039354988295 521.6589183914967Q1573.4039354988295 519.479127932984 1574.5191771287662 519.479127932984L1574.5191771287662 519.479127932984Q1588.7638543111398 519.479127932984 1592.971356824083 514.5112333996296Q1597.1281665356653 509.5940316676358 1597.1281665356653 494.2848056566863L1597.1281665356653 494.2848056566863L1597.1281665356653 421.9968709162423Q1597.1281665356653 409.98267699374213 1594.3907552621843 404.30508324133706Q1591.6533439887032 398.6274894889319 1584.3535805927536 398.6274894889319L1584.3535805927536 398.6274894889319Q1580.7036988947789 398.6274894889319 1575.7864971627853 400.09758072839395Q1570.8692954307915 401.567671967856 1564.6847736647787 404.102312035894L1564.6847736647787 404.102312035894Q1563.2146824253166 404.5078544467801 1562.302212000823 402.6829135977927Q1561.3897415763292 400.85797274880537 1562.8598328157914 400.09758072839395L1562.8598328157914 400.09758072839395L1605.1883219520262 380.0232313895329Q1606.252870780602 379.66838178000756 1607.3681124105387 379.66838178000756L1607.3681124105387 379.66838178000756Q1609.9027524785768 379.66838178000756 1613.9581765874375 387.3229947854824Q1617.9629078949376 394.97760779095717 1617.9629078949376 409.5771345828561L1617.9629078949376 409.5771345828561L1617.9629078949376 494.2848056566863Q1617.9629078949376 509.5940316676358 1622.1704104078808 514.5112333996296Q1626.327220119463 519.479127932984 1640.5718973018368 519.479127932984L1640.5718973018368 519.479127932984Q1641.6871389317735 519.479127932984 1641.6871389317735 521.6589183914967Q1641.6871389317735 523.8387088500094 1640.5718973018368 523.8387088500094L1640.5718973018368 523.8387088500094Q1634.3873755358238 523.8387088500094 1625.8202921058555 523.4838592404841Q1617.2025158745262 523.1290096309588 1607.722962020064 523.1290096309588L1607.722962020064 523.1290096309588Q1598.243408165602 523.1290096309588 1589.4735535301904 523.4838592404841Q1580.7036988947789 523.8387088500094 1574.5191771287662 523.8387088500094ZM1904.1237715764287 382.96341386845705L1904.1237715764287 382.96341386845705Q1904.8334707954791 382.96341386845705 1904.8334707954791 385.14320432696974Q1904.8334707954791 387.3229947854824 1904.1237715764287 387.3229947854824L1904.1237715764287 387.3229947854824Q1894.999067331492 387.3229947854824 1888.611774360036 393.0005885378875Q1882.2244813885802 398.6274894889319 1875.9892668212067 413.9874083012422L1875.9892668212067 413.9874083012422L1830.3657455965224 523.4838592404841Q1830.0108959869974 524.9539504799461 1826.5637854944655 524.9539504799461Q1823.065982200573 524.9539504799461 1822.3562829815226 523.4838592404841L1822.3562829815226 523.4838592404841L1771.2579392098762 413.2270162808308Q1763.6033262044016 396.8025486399445 1758.635431671047 392.0881181133938Q1753.7182299390531 387.3229947854824 1746.7733161526291 387.3229947854824L1746.7733161526291 387.3229947854824Q1745.708767324053 387.3229947854824 1745.708767324053 385.14320432696974Q1745.708767324053 382.96341386845705 1746.7733161526291 382.96341386845705L1746.7733161526291 382.96341386845705Q1752.2481386995912 382.96341386845705 1758.635431671047 383.3182634779823Q1765.0227246425027 383.67311308750766 1771.967638428927 383.67311308750766L1771.967638428927 383.67311308750766Q1784.3873747623131 383.67311308750766 1793.51207900725 383.3182634779823Q1802.6367832521867 382.96341386845705 1810.2913962576615 382.96341386845705L1810.2913962576615 382.96341386845705Q1811.4066378875984 382.96341386845705 1811.4066378875984 385.14320432696974Q1811.4066378875984 387.3229947854824 1810.2913962576615 387.3229947854824L1810.2913962576615 387.3229947854824Q1798.986901554212 387.3229947854824 1792.3968373773134 390.06040605896345Q1785.857466001775 392.7978173324445 1789.8621973092752 401.567671967856L1789.8621973092752 401.567671967856L1836.600960163896 500.8241770322243L1826.0061646794973 515.8292462350094L1868.6895034252573 412.1624674522548Q1874.1643259722193 399.03303189981796 1867.7770330007636 393.1526669419698Q1861.3897400293079 387.3229947854824 1842.4306323203834 387.3229947854824L1842.4306323203834 387.3229947854824Q1841.670240299972 387.3229947854824 1841.670240299972 385.14320432696974Q1841.670240299972 382.96341386845705 1842.4306323203834 382.96341386845705L1842.4306323203834 382.96341386845705Q1851.200486955795 382.96341386845705 1859.0071783653523 383.3182634779823Q1866.86456257627 383.67311308750766 1879.2842989096562 383.67311308750766L1879.2842989096562 383.67311308750766Q1886.9389119151308 383.67311308750766 1891.8561136471246 383.3182634779823Q1896.8240081804793 382.96341386845705 1904.1237715764287 382.96341386845705ZM2053.008529172981 508.12394042817374L2015.4451633646577 526.0184993085221Q2013.9750721251958 526.7788913289335 2012.5049808857339 526.7788913289335L2012.5049808857339 526.7788913289335Q2007.7398575578222 526.7788913289335 2003.380276640797 518.9215071180156Q1999.0206957237715 511.0641229070979 1999.0206957237715 496.1097465056736L1999.0206957237715 496.1097465056736L1999.0206957237715 430.7667255516538Q1999.0206957237715 413.6325586917169 1995.8777420394044 404.102312035894Q1992.785481156398 394.62275818143183 1987.5134298148791 390.9728764834571Q1982.1906856719993 387.3229947854824 1975.6513142964614 387.3229947854824L1975.6513142964614 387.3229947854824Q1966.5266100515241 387.3229947854824 1960.6969378950369 391.8853469079508Q1954.8165729371885 396.4476990304192 1951.9270832596253 403.3926128168433Q1948.9869007807013 410.33752660326746 1947.9223519521254 417.2824403896916L1947.9223519521254 417.2824403896916Q1947.5168095412391 422.35172052576763 1944.779398267758 426.76199424415375Q1942.041986994277 431.1215751611791 1934.3873739888022 431.1215751611791L1934.3873739888022 431.1215751611791Q1928.557701832315 431.1215751611791 1925.2626697438657 428.23208548361583Q1921.9676376554162 425.29190300469173 1921.9676376554162 420.17193006725495L1921.9676376554162 420.17193006725495Q1921.9676376554162 413.6325586917169 1928.557701832315 406.48487369984974Q1935.1477660092137 399.3878815093433 1945.1849406786441 393.3554381474128Q1955.2221153480748 387.3229947854824 1966.3238388460813 383.5210346834254Q1977.4762551454485 379.66838178000756 1987.310658609436 379.66838178000756L1987.310658609436 379.66838178000756Q2001.2004861822843 379.66838178000756 2010.325190427221 389.3507068399128Q2019.4498946721578 399.03303189981796 2019.4498946721578 419.8170804577296L2019.4498946721578 419.8170804577296L2019.4498946721578 484.39970939133804Q2019.4498946721578 497.1742953342496 2022.744926760607 503.05466029209776Q2025.9892660476958 508.8843324485852 2033.2890294436452 508.8843324485852L2033.2890294436452 508.8843324485852Q2039.8790936205442 508.8843324485852 2051.538437933519 504.1192091206737L2051.538437933519 504.1192091206737Q2053.3633787825065 503.4095099016231 2054.1237708029184 505.3865291546927Q2054.8334700219684 507.41424120912313 2053.008529172981 508.12394042817374L2053.008529172981 508.12394042817374ZM1943.8669278432644 526.3733489180474L1943.8669278432644 526.3733489180474Q1932.2075835302896 526.3733489180474 1926.3779113738024 519.9860559465917Q1920.5482392173149 513.598762975136 1920.5482392173149 505.23445075061045L1920.5482392173149 505.23445075061045Q1920.5482392173149 494.99450487573694 1928.557701832315 488.9620615138064Q1936.567164447315 482.9803109532367 1954.8165729371885 476.7450963858633L1954.8165729371885 476.7450963858633L2002.6705774217462 459.61092952592634L2003.735126250322 463.6156608334264L1961.4066371140875 479.68527886478734Q1952.9916320882014 482.9803109532367 1949.5445215956697 486.9850422607368Q1946.0974111031378 490.98977356823684 1946.0974111031378 497.1742953342496L1946.0974111031378 497.1742953342496Q1946.0974111031378 504.8796011410851 1950.4569920201634 509.0364108526674Q1954.8165729371885 513.2439133656105 1961.761486723613 513.2439133656105L1961.761486723613 513.2439133656105Q1965.7662180311129 513.2439133656105 1969.4160997290876 512.3314429411168Q1973.0659814270623 511.4189725166232 1976.715863125037 509.5940316676358L1976.715863125037 509.5940316676358L2007.7398575578222 493.92995604716094L2008.5002495782337 498.2895369641863L1976.715863125037 515.4237038241233Q1965.7662180311129 520.8985263710854 1958.4664546351632 523.6359376445664Q1951.1666912392138 526.3733489180474 1943.8669278432644 526.3733489180474ZM2090.26773817314 405.21755366583074L2090.26773817314 405.21755366583074Q2090.26773817314 414.69710752029283 2095.1849399051334 421.2871716971917Q2100.1021416371277 427.82654307272975 2107.6046762385204 432.38889519519813Q2115.056518038552 436.95124731766657 2123.471523064438 441.3615210360527L2123.471523064438 441.3615210360527Q2132.9510769189 446.0759515626034 2141.366081944786 451.3986957054832Q2149.7303941693117 456.67074704700224 2155.2052167162738 464.1732816483947Q2160.680039263236 471.62512344842645 2160.680039263236 483.6900101722874L2160.680039263236 483.6900101722874Q2160.680039263236 495.3493544852622 2154.8503671067483 505.3865291546927Q2149.020694950261 515.4237038241233 2137.513429041368 521.6589183914967Q2126.006163132476 527.8434401575095 2109.2268458820645 527.8434401575095L2109.2268458820645 527.8434401575095Q2100.1021416371277 527.8434401575095 2091.687136611241 525.4608784935538Q2083.322824386716 523.1290096309588 2074.1981201417793 516.8937950635852L2074.1981201417793 516.8937950635852Q2073.4377281213674 516.1840958445346 2072.7280289023165 515.0688542145979Q2072.0183296832665 514.004305386022 2072.0183296832665 512.5342141465599L2072.0183296832665 512.5342141465599L2071.2579376628546 484.0448597818127Q2071.2579376628546 482.9803109532367 2073.285649717285 482.7775397477937Q2075.2626689703548 482.5747685423507 2075.6682113812412 483.6900101722874L2075.6682113812412 483.6900101722874Q2080.027792298267 496.1097465056736 2086.6178564751654 504.3219803261168Q2093.157227850703 512.5342141465599 2101.5722328765896 516.741716659503Q2109.9365451011145 520.8985263710854 2119.4667917569377 520.8985263710854L2119.4667917569377 520.8985263710854Q2131.1261360699127 520.8985263710854 2137.513429041368 515.0688542145979Q2143.900722012824 509.23918205811054 2143.5458724032987 497.934687354661L2143.5458724032987 497.934687354661Q2143.1910227937733 487.33989187026214 2138.0710498563367 480.74982769336333Q2132.9510769189 474.2104563178253 2125.4485423175074 469.64810419535684Q2117.996700517476 465.0857520728884 2109.9365451011145 461.08102076538836L2109.9365451011145 461.08102076538836Q2100.8118408561777 456.67074704700224 2092.599607035735 451.7535453150085Q2084.3873732152915 446.83634358301475 2079.1153218737727 439.18173057754Q2073.843270532254 431.47642477070445 2073.843270532254 419.107381238679L2073.843270532254 419.107381238679Q2073.843270532254 404.8627040563054 2081.1430339282033 395.89007821545084Q2088.4427973241527 386.9681451759571 2099.7472920276023 382.760642663014Q2111.051786731052 378.5531401500709 2123.471523064438 378.5531401500709L2123.471523064438 378.5531401500709Q2130.416436850862 378.5531401500709 2136.9558082264 379.66838178000756Q2143.5458724032987 380.78362340994437 2150.085243778837 384.027962697033L2150.085243778837 384.027962697033Q2153.3802758672864 385.14320432696974 2153.3802758672864 388.0833868058938L2153.3802758672864 388.0833868058938Q2153.3802758672864 393.91305896238117 2153.025426257761 400.30035193383696Q2152.6705766482355 406.68764490529276 2152.6705766482355 414.69710752029283L2152.6705766482355 414.69710752029283Q2152.6705766482355 415.45749954070425 2150.4907861897227 415.45749954070425Q2148.26030292985 415.45749954070425 2148.26030292985 414.69710752029283L2148.26030292985 414.69710752029283Q2148.26030292985 406.3327952957674 2142.4306307733623 399.7427311188686Q2136.600958616875 393.1526669419698 2127.8311039814635 389.3507068399128Q2119.061249346052 385.498053936495 2110.342087512001 385.498053936495L2110.342087512001 385.498053936495Q2101.5722328765896 385.498053936495 2095.8946391241843 390.26317726440647Q2090.26773817314 394.97760779095717 2090.26773817314 405.21755366583074Z " fill="#fbeaeb" transform="matrix(0.47293050184669205,0,0,0.47293050184669205,-146.851521946048,85.66868823511287)"/></g></svg>